<svg width="300" height="54" viewBox="0 0 300 54" fill="none" xmlns="http://www.w3.org/2000/svg">
<g clip-path="url(#clip0_1488_14751)">
<path d="M52.7528 20.2927C53.1469 4.86554 48.0244 1.24873 33.9793 1.47913C30.8221 1.42873 23.8624 1.43353 20.5844 1.47673C-0.251204 0.756733 1.56185 11.0911 1.4724 28.0327C1.29835 45.4447 1.68272 52.7719 20.5844 52.3399C23.5844 52.3831 30.5635 52.3855 33.6771 52.3399C41.1493 52.1095 45.0437 52.2847 49.1461 48.4975C52.1098 45.4807 52.7311 40.9255 52.7528 33.4255C52.7939 30.3367 52.7939 23.2639 52.7528 20.3359V20.2951V20.2927Z" fill="white"/>
<path d="M27.1521 53.8094C24.65 53.8094 22.1432 53.7998 20.5888 53.7758C12.3841 53.9606 7.35106 52.6982 4.27371 49.6838C0.0625815 45.5558 -0.0872976 38.7614 0.0214856 28.0166C0.0287379 26.7014 0.0214856 25.415 0.0214856 24.1718C-0.0123581 15.3183 -0.036533 8.32714 4.3559 4.09834C7.51545 1.05753 12.679 -0.236066 20.6009 0.035134C23.8233 -0.00566601 30.7298 -0.0128655 33.9788 0.0375345C42.1714 -0.0944655 46.9796 1.15593 50.0304 4.21354C53.1174 7.30714 54.4059 12.2703 54.2028 20.3079V20.3271C54.2439 23.2935 54.2439 30.4094 54.2028 33.4454C54.1786 41.2262 53.5332 46.0958 50.1851 49.5038L50.1343 49.5542C45.9256 53.4398 41.9127 53.5502 35.2673 53.735C34.7693 53.7494 34.2544 53.7638 33.7226 53.7806C32.1923 53.8022 29.6758 53.8142 27.1545 53.8142L27.1521 53.8094ZM20.5767 50.8958H20.6033C23.6879 50.939 30.6404 50.939 33.6525 50.8958C34.1649 50.879 34.6823 50.8646 35.1827 50.8526C41.5332 50.675 44.7314 50.5862 48.1303 47.4638C50.7677 44.7566 51.2802 40.4342 51.3019 33.4166C51.343 30.3854 51.343 23.3103 51.3019 20.3511V20.2767V20.2551C51.4857 13.0551 50.4583 8.73274 47.9683 6.23914C45.5219 3.79114 41.3495 2.79514 34.0006 2.91754H33.9764H33.9522C30.7226 2.86714 23.7967 2.87434 20.6009 2.91754H20.567H20.5332C13.4357 2.67034 8.93446 3.70474 6.37443 6.16954C2.86678 9.54394 2.88853 15.6759 2.92238 24.1646C2.92721 25.415 2.93205 26.7062 2.92238 28.0406C2.82085 38.0366 2.93205 44.3246 6.31158 47.6366C8.787 50.063 13.1794 51.0662 20.5501 50.9006H20.5767V50.8958Z" fill="#DFDFDF"/>
<path d="M11.9074 34.0946C11.905 34.073 11.9026 34.0538 11.9002 34.0346C11.8059 33.4034 11.8881 32.9978 12.0936 32.7578C12.3015 32.5178 12.6592 32.4434 13.2249 32.4434C13.7906 32.4434 14.1532 32.5154 14.3804 32.6954C14.6101 32.8778 14.6826 33.1706 14.76 33.6362C14.76 33.6506 14.7648 33.665 14.7648 33.6794C14.9969 35.2898 15.7414 36.7874 16.8776 37.9946C17.7334 38.9018 18.7825 39.6722 19.9236 40.1378L20.1363 40.2338C20.2088 40.2626 20.2837 40.2842 20.3587 40.3106L20.8035 40.4618C21.1008 40.5602 21.4127 40.6154 21.7149 40.697C22.0267 40.7402 22.3361 40.8026 22.6504 40.8314L23.1242 40.8626L23.3611 40.8794L23.598 40.8746C24.8623 40.8698 26.1266 40.6202 27.2869 40.1402C28.4473 39.6602 29.4795 38.9258 30.3087 38.0162C30.3425 37.9802 30.374 37.9466 30.403 37.9154C30.4803 37.8338 30.5553 37.7666 30.6254 37.7042C30.6882 37.637 30.7511 37.5818 30.8164 37.5386C30.9445 37.4498 31.0726 37.3994 31.2176 37.3922C31.5029 37.3754 31.8413 37.5146 32.3031 37.8146C32.7648 38.1146 33.021 38.3642 33.0694 38.6714C33.0936 38.825 33.067 38.9906 32.9896 39.1778C32.9509 39.2714 32.9002 39.3722 32.8349 39.4802C32.7648 39.5834 32.6778 39.6866 32.5786 39.8018C32.54 39.845 32.4965 39.893 32.4529 39.941C31.3313 41.1722 29.9388 42.1514 28.4135 42.7826C26.8881 43.4162 25.2491 43.7354 23.6053 43.7426L23.2983 43.7474L22.9912 43.7282L22.3748 43.6874C21.9663 43.649 21.5601 43.5746 21.1516 43.5122C20.7527 43.4114 20.3442 43.3322 19.9526 43.205L19.3651 43.0058C19.2684 42.9698 19.1693 42.941 19.0726 42.9026L18.7874 42.7778C18.0211 42.4634 17.2886 42.0458 16.6214 41.573C15.9518 41.0978 15.3305 40.5554 14.7672 39.9554C14.0202 39.1586 13.3796 38.249 12.8913 37.2554C12.403 36.2642 12.0718 35.1914 11.9123 34.1018L11.9074 34.0946Z" fill="#00B5D6"/>
<path d="M33.7708 13.0859C33.7877 13.0859 33.8022 13.0859 33.8168 13.0859C34.9312 13.0931 35.2237 13.3955 35.2237 14.5187C35.2237 15.6419 34.9312 15.9443 33.8168 15.9515C33.8022 15.9515 33.7877 15.9515 33.7708 15.9515H13.2979C13.2471 15.9515 13.1987 15.9515 13.1528 15.9515C12.1012 15.9299 11.8232 15.6155 11.8232 14.5187C11.8232 13.4219 12.1012 13.1075 13.1528 13.0859C13.1987 13.0859 13.2471 13.0859 13.2979 13.0859H28.6773H33.7732H33.7708Z" fill="#00B5D6"/>
<path d="M29.434 23.0918C29.4461 23.0918 29.4582 23.0918 29.4703 23.0918C30.5847 23.099 30.8772 23.4014 30.8772 24.5246C30.8772 25.6478 30.5847 25.9502 29.4703 25.9574C29.4582 25.9574 29.4461 25.9574 29.434 25.9574H13.2664C13.2278 25.9574 13.1867 25.9574 13.1528 25.9574C12.1012 25.9358 11.8232 25.6214 11.8232 24.5246C11.8232 23.4278 12.1012 23.1134 13.1528 23.0918C13.1891 23.0918 13.2278 23.0918 13.2664 23.0918H25.409H29.434Z" fill="#00B5D6"/>
<path fill-rule="evenodd" clip-rule="evenodd" d="M44.8236 12.7141C44.5286 12.3397 44.1394 12.0325 43.668 11.8309C43.3514 11.6965 43.0153 11.6173 42.6745 11.5981C41.4464 11.5309 40.2933 12.2413 39.8099 13.3645L33.8389 27.2246C33.7833 27.3542 33.7204 27.503 33.66 27.6926C33.6551 27.7046 33.6527 27.7166 33.6479 27.731C33.6285 27.7934 33.6116 27.8582 33.5947 27.9302C33.5125 28.2422 33.4642 28.5614 33.4545 28.8878L33.4472 29.1422C33.4472 29.1422 33.4472 29.1614 33.4472 29.1734L33.3215 34.307C33.3143 34.5878 33.4642 34.787 33.66 34.8926C33.6842 34.907 33.7059 34.9214 33.7301 34.931C33.9887 35.0414 34.2764 34.9766 34.4626 34.7918L38.1153 31.1558C38.9057 30.359 39.1112 29.8814 39.2635 29.5286L45.2273 15.6829L45.2321 15.6709C45.6648 14.6533 45.4738 13.5253 44.826 12.7165L44.8236 12.7141Z" fill="#111213"/>
<path d="M292.242 11.4941H295.303V12.1699H294.147V15.3193H293.398V12.1699H292.242V11.4941ZM295.929 11.4941H296.806L297.935 14.2574L299.064 11.4941H299.942V15.3193H299.231V12.8456L298.23 15.3193H297.631L296.644 12.8456V15.3193H295.936V11.4941H295.929Z" fill="#111213"/>
<path d="M220.971 42.7322C213.663 42.7322 208.362 37.4477 208.362 30.1639C208.362 22.8802 213.666 17.5957 220.971 17.5957C228.276 17.5957 233.534 22.8826 233.534 30.1639C233.534 37.4453 228.249 42.7322 220.971 42.7322ZM220.971 21.5027C216.262 21.5027 212.974 25.0641 212.974 30.1615C212.974 35.2589 216.262 38.8202 220.971 38.8202C225.68 38.8202 228.919 35.2589 228.919 30.1615C228.919 25.0641 225.651 21.5027 220.971 21.5027Z" fill="#111213"/>
<path d="M284.679 42.7326C279.196 42.7326 275.481 39.8094 274.859 35.0937C274.854 35.0601 274.847 34.9761 274.835 34.8777C274.811 34.6449 274.995 34.4433 275.232 34.4433H278.807C279.003 34.4433 279.17 34.5849 279.199 34.7769C279.211 34.8513 279.22 34.9185 279.23 34.9617C279.721 37.4073 281.727 38.8209 284.679 38.8209C287.377 38.8209 289.335 37.4721 289.335 35.5425C289.335 32.6459 286.535 32.1899 283.572 31.7075C279.752 31.0859 275.423 30.3803 275.423 24.5869C275.423 20.404 278.908 17.5938 284.094 17.5938C289.279 17.5938 292.784 20.1352 293.517 24.1477C293.536 24.2509 293.568 24.5125 293.594 24.7477C293.621 24.9805 293.437 25.1845 293.2 25.1845H289.61C289.422 25.1845 289.26 25.0525 289.221 24.8701C289.187 24.7117 289.151 24.5389 289.134 24.4837C288.467 22.2735 286.132 21.3856 284.096 21.3856C281.543 21.3856 279.83 22.5375 279.83 24.4429C279.83 27.0445 282.479 27.4261 285.286 27.8293C289.294 28.4053 293.836 29.0603 293.836 35.4465C293.836 39.8718 290.241 42.7302 284.679 42.7302" fill="#111213"/>
<path d="M245.495 42.3598C243.036 42.3598 241.01 41.6182 239.635 40.2142C238.189 38.7384 237.493 36.6216 237.568 33.9264V23.5758H237.534C236.183 23.4942 234.844 23.3358 233.557 23.1006C233.468 23.0838 233.391 23.0334 233.337 22.959C233.287 22.8846 233.267 22.7934 233.284 22.7022L233.954 19.3064C233.985 19.148 234.126 19.0352 234.288 19.0352C234.307 19.0352 234.329 19.0352 234.348 19.04C235.38 19.2248 236.449 19.3568 237.524 19.4288H237.561V18.8528L237.566 11.8403C237.566 11.6532 237.718 11.502 237.906 11.502H241.738C241.927 11.502 242.079 11.6532 242.079 11.8403V19.3928H242.118C244.173 19.2152 246.065 18.8312 248.074 18.1784C248.108 18.1664 248.144 18.1616 248.181 18.1616C248.326 18.1616 248.454 18.2528 248.5 18.3896L249.636 21.6607C249.665 21.7471 249.66 21.8407 249.619 21.9223C249.578 22.0039 249.508 22.0638 249.421 22.0926C246.977 22.8918 244.654 23.3526 242.113 23.5422H242.081V33.9168C242.081 36.6312 243.612 38.1864 246.278 38.1864H248.778C248.966 38.1864 249.119 38.3376 249.119 38.5248V42.0238C249.119 42.2086 248.966 42.3622 248.778 42.3622H245.495V42.3598Z" fill="#111213"/>
<path d="M201.233 42.3591C201.044 42.3591 200.892 42.2079 200.892 42.0207V28.2982C200.892 24.5328 198.654 22.0033 195.325 22.0033C191.624 22.0033 188.939 25.0126 188.939 29.1598V42.0183C188.939 42.2055 188.786 42.3567 188.598 42.3567H184.351C184.162 42.3567 184.01 42.2055 184.01 42.0183V18.2834C184.01 18.0962 184.162 17.945 184.351 17.945H188.598C188.786 17.945 188.939 18.0962 188.939 18.2834V21.8065C190.329 19.1186 193.099 17.5898 196.628 17.5898C202.127 17.5898 205.821 21.5257 205.821 27.3862V42.0183C205.821 42.2055 205.669 42.3567 205.48 42.3567H201.233V42.3591Z" fill="#111213"/>
<path d="M175.073 42.3627C174.885 42.3627 174.733 42.2115 174.733 42.0243V39.4659L174.67 39.5571C173.36 41.4123 170.522 42.5211 167.08 42.5211C160.057 42.5211 155.518 37.6611 155.518 30.1376C155.518 22.6139 160.035 17.7541 167.031 17.7541C170.188 17.7541 173.323 19.3597 174.672 20.8716L174.733 20.9388V8.39697C174.733 8.20979 174.885 8.05859 175.073 8.05859H178.973C179.161 8.05859 179.314 8.20979 179.314 8.39697V42.0267C179.314 42.2139 179.161 42.3651 178.973 42.3651H175.073V42.3627ZM167.652 21.6899C163.154 21.6899 160.13 25.1002 160.13 30.1736C160.13 35.2469 163.154 38.6571 167.652 38.6571C172.151 38.6571 175.223 35.2469 175.223 30.1736C175.223 25.1002 172.18 21.6899 167.652 21.6899Z" fill="#111213"/>
<path d="M83.5791 42.7311C76.1944 42.7311 68.5049 37.9026 68.5049 27.1177C68.5049 16.3325 76.2814 11.5039 83.7531 11.5039C89.8182 11.5039 94.3457 14.8589 96.1781 20.7123C96.2144 20.8299 96.1975 20.9594 96.1322 21.065C96.0669 21.1706 95.9557 21.245 95.83 21.2642L92.2984 21.833C92.2743 21.8378 92.2525 21.8378 92.2283 21.8378C92.0567 21.8378 91.8996 21.737 91.8295 21.5786C90.0212 17.4676 87.5291 15.6341 83.7483 15.6341C77.4635 15.6341 73.163 20.1411 73.163 27.1201C73.163 34.0988 77.5747 38.7354 83.7024 38.7354C88.5756 38.7354 92.3903 35.8244 92.3951 31.4854C92.3951 30.955 92.3855 31.2814 92.3734 31.0774C91.4983 31.1782 90.7054 31.2262 89.9511 31.2262C88.3365 31.2262 87.0118 31.0006 85.3994 30.6382C85.1697 30.5854 85.0223 30.3574 85.0706 30.1294L85.7088 26.9401C85.7523 26.7409 85.9288 26.5969 86.1343 26.5969C86.1657 26.5969 86.1996 26.5969 86.231 26.6065C87.6911 26.9329 89.1655 27.0985 90.6159 27.0985C92.8109 27.0985 95.0057 26.7337 97.324 25.9849C97.3675 25.9705 97.4134 25.9633 97.4594 25.9633C97.6455 25.9633 97.8099 26.0809 97.8703 26.2561L98.8491 29.347C98.8878 29.4574 98.8757 29.5846 98.8177 29.6878C98.7599 29.7934 98.6584 29.8702 98.5423 29.899C98.0105 30.0286 97.4569 30.1486 96.9662 30.2542L96.5698 30.3406L96.8792 41.9202C96.8816 42.0378 96.8381 42.1482 96.7559 42.2322C96.6737 42.3162 96.5625 42.3618 96.444 42.3618H93.0913C92.852 42.3618 92.6586 42.1674 92.6586 41.9298V38.8218C90.7972 41.2938 87.5606 42.7311 83.5743 42.7311" fill="#111213"/>
<path d="M261.624 42.7314C251.637 42.4578 249.106 34.4279 249.517 29.513C250.255 20.6957 256.644 17.5879 261.307 17.5879C272.347 17.5879 272.804 29.8514 272.806 29.9714C272.806 30.1442 272.695 30.2954 272.536 30.3506C267.384 32.1743 263.342 32.6975 259.856 32.6975C258.092 32.6975 256.329 32.3855 254.263 32.0015C254.209 31.9919 254.161 32.0375 254.171 32.0903C254.809 36.1079 258.358 38.8533 261.732 38.8245C265.639 38.7909 267.556 37.1949 268.346 34.6967C268.392 34.5503 268.52 34.4471 268.673 34.4471H272.698C272.802 34.4471 272.898 34.4951 272.964 34.5767C273.029 34.6559 273.053 34.7591 273.031 34.8575C271.992 39.5685 267.64 42.8634 261.624 42.7338M260.567 21.4253C256.445 21.8093 254.57 25.6684 254.176 27.7322C254.168 27.7754 254.171 27.8162 254.195 27.8522C254.219 27.8882 254.255 27.9074 254.296 27.9194C259.69 29.3306 264.633 28.5026 268.025 27.6242C268.064 27.6146 268.1 27.5906 268.122 27.557C268.143 27.5234 268.143 27.4874 268.141 27.449C268.042 25.8916 266.089 20.9117 260.567 21.4253Z" fill="#111213"/>
<path d="M140.83 42.7535C133.522 42.7535 128.219 37.469 128.219 30.1854C128.219 22.9017 133.522 17.6172 140.83 17.6172C148.137 17.6172 153.392 22.9017 153.392 30.1854C153.392 37.469 148.108 42.7535 140.83 42.7535ZM140.83 21.5242C136.121 21.5242 132.833 25.0857 132.833 30.183C132.833 35.2804 136.121 38.8226 140.83 38.8226C145.539 38.8226 148.778 35.2828 148.778 30.183C148.778 25.0833 145.51 21.5242 140.83 21.5242Z" fill="#111213"/>
<path d="M113.454 42.7535C106.147 42.7535 100.846 37.469 100.846 30.1854C100.846 22.9017 106.149 17.6172 113.454 17.6172C120.759 17.6172 126.017 22.9017 126.017 30.1854C126.017 37.469 120.733 42.7535 113.454 42.7535ZM113.454 21.5242C108.746 21.5242 105.458 25.0857 105.458 30.183C105.458 35.2804 108.746 38.8226 113.454 38.8226C118.163 38.8226 121.402 35.2828 121.402 30.183C121.402 25.0833 118.134 21.5242 113.454 21.5242Z" fill="#111213"/>
</g>
<defs>
<clipPath id="clip0_1488_14751">
<rect width="300" height="54" fill="white"/>
</clipPath>
</defs>
</svg>
