<?xml version="1.0" encoding="utf-8"?>
<!-- Generator: Adobe Illustrator 27.2.0, SVG Export Plug-In . SVG Version: 6.00 Build 0)  -->
<svg version="1.1" id="Layer_1" xmlns="http://www.w3.org/2000/svg" xmlns:xlink="http://www.w3.org/1999/xlink" x="0px" y="0px"
	 viewBox="0 0 372.8 72" style="enable-background:new 0 0 372.8 72;" xml:space="preserve">
<path d="M194.7,38.1c0.1,0.2,0.2,0.4,0.2,0.7h13.5c0.3,0,0.6-0.4,0.9-0.5c-0.4-0.3-0.7-0.7-1.2-0.8c-3.4-0.9-3.8-1.3-3.8-4.6
	c-0.1-8.9-0.1-17.8,0-26.7c0-3.2,0.8-4.4,3.7-4.6c0.4,0,0.7-0.5,1.1-0.8c-0.5-0.2-0.9-0.5-1.4-0.5c-3.8-0.1-7.6-0.1-11.5,0
	c-0.5,0-1,0.4-1.4,0.7c0.4,0.2,0.8,0.6,1.3,0.7c2.9,0.7,3.2,1,3.3,4c0.1,3.4,0,6.9,0.1,10.3c0,1.2-0.5,1.7-1.7,1.7
	c-6.4,0-12.7,0-19.1,0c-1.3,0-1.7-0.5-1.7-1.7c0.1-3.5-0.1-7,0.1-10.5c0.1-2.6,0.6-3.1,3.1-3.7c0.5-0.1,1-0.5,1.6-0.8
	c-0.1-0.2-0.1-0.5-0.2-0.7H169c-0.4,0-0.8-0.1-1.2,0.1s-0.6,0.5-1.1,0.8c0.6,0.2,0.8,0.4,1.1,0.4c3.7,0.2,4.1,1.3,4.3,5
	c0.2,3.8,0.1,7.6,0.1,11.5c0,5.1-0.1,10.3-0.1,15.4c0,2.2-0.8,3.7-3.2,3.9c-0.5,0.1-0.8,0.6-1.3,1l0.2,0.4h14.5l0.2-0.6
	c-0.7-0.2-1.3-0.6-2-0.7c-2.8-0.5-3.4-1-3.5-3.8c-0.1-3.9,0-7.8-0.1-11.7c0-1.3,0.5-1.9,1.8-1.9h18.9c1.3,0,1.9,0.5,1.9,1.9
	c-0.1,3.9,0,7.8-0.1,11.7c-0.1,2.8-0.5,3.2-3.2,3.8C195.7,37.3,195.2,37.8,194.7,38.1L194.7,38.1z M94.1,38.4
	c-0.7-0.6-0.8-0.8-1-0.8c-3.7-0.8-3.8-1-3.8-4.7c0-4.6,0-9.2,0-13.8c0-2.6,0-5.3,0-8c0-2,0.5-3.7,3-3.8c0.4,0,0.7-0.4,1.1-0.5
	c0-0.2-0.1-0.4-0.1-0.5c-2,0-4.1-0.1-6.1,0.1s-4.1-0.8-6.5,0.5c0.7,0.3,1,0.5,1.4,0.5c2.8,0.7,3.1,1,3.1,3.8v8
	c0,1.1-0.5,1.6-1.6,1.6c-5.3,0-10.5,0-15.8,0c-1.2,0-1.7-0.5-1.7-1.7c0.1-2.8,0-5.6,0.1-8.4c0-1.9,0.7-3.2,2.8-3.3
	c0.4,0,0.8-0.4,1.3-0.5c-0.1-0.1-0.1-0.2-0.1-0.4H58.1c0.4,0.7,0.8,0.9,1.2,1c2.3,0.1,2.9,1.5,2.9,3.4c0.1,7.9,0,15.7,0,23.6
	c0,1.7-0.8,2.8-2.6,3.2c-0.4,0.1-0.8,0.5-1.2,0.7l0.2,0.3h12.2l0.1-0.5c-0.4-0.1-0.8-0.4-1.2-0.4c-2.7-0.5-3.2-1-3.3-3.7
	c-0.1-3.1,0-6.1-0.1-9.3c0-1.3,0.5-1.9,1.8-1.9h15.6c1,0,1.6,0.4,1.6,1.6c-0.1,3.4,0,6.9,0,10.3c0,1.5-0.7,2.5-2.2,2.8
	c-0.7,0.1-1.3,0.4-1.9,0.6c0.1,0.2,0.1,0.4,0.1,0.5L94.1,38.4z M124.9,30.9c-0.5-0.5-1.1-1-1.5-1.4c-5.4-6.1-10.8-12.1-16.2-18.3
	c-1.4-1.6-2.3-4.1-4.1-4.9C101.4,5.4,98.8,6,96.7,6c-0.4,0-0.8,0.2-1.6,0.5c0.8,0.4,1.1,0.7,1.4,0.8c3.7,1,4.1,1.6,4.1,5.4v13.1
	c0,2.7-0.1,5.5-0.2,8.2c-0.1,2-0.8,3.4-3.1,3.5c-0.4,0-0.7,0.4-1.5,0.9h11.7c-0.2-0.5-0.4-0.8-0.7-0.9c-3.7-0.7-3.8-0.7-3.9-4.4
	c-0.2-5.9-0.2-11.7-0.4-17.6c0-0.9,0.2-1.9,0.3-3.3l23.8,27.2c0.5-1,0.6-1.7,0.6-2.5c0-8.1,0-16.1,0.1-24.2c0-2.8,0.2-5.5,4-5.7
	c0.1,0,0.2-0.2,0.7-0.8h-11.7c0.3,0.7,0.8,1,1.2,1c2.5,0,3.4,1.4,3.4,3.7v20L124.9,30.9z M300.2,38.5c0.1-0.2,0.1-0.4,0.2-0.7
	c-0.4-0.2-0.9-0.2-1.3-0.5c-1.1-0.6-2.5-1-3.3-1.9c-4.3-4.6-8.5-9.4-12.7-14.2c-0.8-1-0.9-1.7,0.1-2.6c2-1.8,3.8-3.7,5.8-5.5
	c2.9-2.8,5.9-5.5,10.2-6.2c0.1,0,0.2-0.2,0.7-0.8h-11c-0.1,0.2-0.1,0.4-0.1,0.5c0.8,0.4,1.6,0.7,2.3,1.1c-1.6,3.2-11.6,12.7-13.8,13
	c-0.1-0.7-0.2-1.4-0.2-2.2c-0.1-2.2-0.1-4.4,0-6.6c0.1-3.9,0.1-3.9,3.7-5.1c0.2-0.1,0.2-0.2,0.7-0.7h-12.5c0,0.2-0.1,0.4-0.1,0.5
	c0.5,0.2,1,0.4,1.4,0.5c2,0.1,2.8,1.3,2.8,3.1v24c0,1.7-0.8,2.7-2.5,3c-0.5,0.1-0.8,0.4-1.3,0.6c0.1,0.1,0.1,0.2,0.2,0.4h11.7
	c0-0.2,0.1-0.4,0.1-0.6c-0.5-0.1-1.1-0.3-1.6-0.4c-1.7-0.2-2.6-1.1-2.7-2.8c-0.1-3.5-0.1-7.1-0.1-10.6c0-1.5,0.8-1.8,2-1
	c0.5,0.3,0.9,0.7,1.3,1.1c3.4,3.8,6.7,7.6,10.1,11.4c0.4,0.4,0.7,1,1,1.4c-1,0.5-1.7,0.8-2.5,1.2c0.1,0.2,0.2,0.3,0.2,0.5h11.1
	L300.2,38.5z M324.8,12.8c0.2,0,0.4,0,0.5-0.1c7.8,9,15.6,17.9,23.6,27c0.2-0.8,0.4-1.2,0.4-1.6c0-2.2-0.1-4.5-0.1-6.7
	c0.1-6.9,0.2-13.6,0.2-20.5c0-2,0.7-3.3,2.9-3.5c0.5-0.1,0.8-0.4,1.3-0.6l-0.1-0.5h-11.3c0.3,0.7,0.7,1,1.1,1
	c2.7-0.1,3.6,1.6,3.7,3.9c0.1,6.4,0.1,12.9,0.1,19.2c0,0.1-0.2,0.2-0.3,0.2c-0.2-0.1-0.4-0.2-0.5-0.3c-6.2-7-12.6-13.9-18.5-21.2
	c-2-2.5-3.7-3.5-6.6-3.1c-1.2,0.2-2.4,0-3.7,0c0,0.2-0.1,0.4-0.1,0.6c0.4,0.2,0.8,0.5,1.3,0.6c3,0.7,3.8,1.3,3.8,4.4
	c0.1,7.6-0.1,15.3-0.2,23c0,1.7-1,2.6-2.6,2.8c-0.5,0.1-1,0.4-1.4,0.6c0.1,0.1,0.1,0.2,0.2,0.3h11.2c0-0.2,0.1-0.4,0.1-0.6
	c-0.7-0.1-1.4-0.1-1.9-0.4c-0.9-0.5-2.4-1.1-2.5-1.9C324.2,28,324.7,20.4,324.8,12.8L324.8,12.8z M8.2,0.4c0,0.2,0.1,0.5,0.1,0.7
	C9,1.3,9.7,1.5,10.4,1.6c2.2,0.1,3.2,1.4,3.4,3.4c0.1,0.7,0.1,1.5,0.1,2.2c0,8.8,0.1,17.6-0.1,26.4c-0.1,3.4-0.4,6.8-0.9,10.2
	c-0.5,3.1-1.9,3.8-4.9,3.1c-0.7-0.2-1.4-0.4-2.2-0.4c-1.6-0.1-2.2,1.1-2.2,2.5c0,0.4,1.3,1.2,2,1.2c4.1,0.3,7.3-1.6,9.9-4.8
	c2.6-3.4,3.2-7.3,3.2-11.4c0.1-9.4,0.1-18.8,0.1-28.1c0-3,0.5-3.6,3.2-4.3c0.5-0.1,0.8-0.6,1.3-1c-0.5-0.2-0.9-0.5-1.4-0.5
	c-4-0.1-7.9-0.1-11.9,0C9.4,0.1,8.8,0.3,8.2,0.4z M257,38.5l0.1-0.6c-0.5-0.1-0.9-0.3-1.4-0.4c-2.7-0.4-3.2-0.8-3.4-3.7
	c-0.1-1.9-0.1-3.7-0.1-5.5c0-6.1,0-12.3,0-18.5c0-1.1,0.1-2,1.4-2.3c4.7-0.9,9,2.3,9.3,7.2c0.2,4.6-1.6,7.3-6.1,8.7
	c-0.5,0.1-0.9,0.4-1.3,0.6c0.1,0.2,0.1,0.5,0.2,0.7c1.6-0.3,3.2-0.4,4.7-0.8c4.7-1.3,7.1-4.4,7-8.8c-0.1-4.3-2.6-7.7-7.3-8.3
	c-5-0.7-10.2-0.3-15.3-0.4c-0.2,0-0.5,0.4-1,0.9c0.9,0.2,1.4,0.5,2,0.5c1.7,0.1,2.5,1,2.4,2.6v24c0,1.9-1,2.8-2.7,3
	c-0.5,0.1-1,0.3-1.4,0.4c0.1,0.2,0.1,0.4,0.1,0.6H257z M149.3,12.6c1.4-4.9,0.2-6.6-4.2-7c-1.3-0.1-2.8-0.2-4.1,0
	c-3.5,0.4-6.3,2-7.6,5.4c-1.3,3.6-0.3,6.8,2.5,9.3c1.8,1.6,4,2.9,5.9,4.4c1.3,1,2.8,2,3.8,3.3c1.7,2.2,1.8,4.7,0.5,7.2
	c-1.2,2.3-3.4,2.9-5.9,2.8c-3.8-0.2-6-2.5-7.5-5.8c-0.2-0.6-0.7-1.1-1-1.7c-1,6.3,0.3,8,6,8.8c1.4,0.2,2.9,0.2,4.3,0
	c4-0.5,7.1-2.3,8.1-6.4c1.1-4.1-0.2-7.8-3.6-10.4c-1.9-1.5-4.1-2.6-6.1-4.1c-1.3-1-2.7-2.2-3.5-3.6c-1.7-2.8-0.3-6.4,2.6-7.5
	c3.7-1.4,7.2,0.1,8.8,3.7C148.7,11.6,149.1,12,149.3,12.6L149.3,12.6z M371.4,12.6c1.4-4.6,0.2-6.5-4-7c-1.1-0.1-2.2-0.1-3.2-0.1
	c-4.1,0.1-7.5,2.2-8.6,5.5c-1.3,3.5-0.2,7.2,3.1,9.9c1.9,1.6,4.1,2.8,6.2,4.3c1.1,0.8,2.2,1.7,3,2.8c1.6,2.2,1.8,4.7,0.5,7.2
	c-1.3,2.3-3.5,2.9-6,2.8c-3.7-0.2-5.9-2.5-7.4-5.7c-0.3-0.7-0.7-1.2-1.3-2.2c-1.1,5.8,0.7,8.4,5.8,9.1c1.7,0.2,3.4,0.2,5.1,0.1
	c3.8-0.5,6.8-2.3,7.8-6.3c1.1-4,0-7.5-3.2-10.2c-1.7-1.4-3.7-2.5-5.6-3.8c-1.4-1-2.8-2-3.9-3.3c-2.3-2.9-1.3-7.2,2-8.4
	c3.7-1.4,7.3,0.1,8.9,3.7C370.8,11.5,371.1,12,371.4,12.6L371.4,12.6z M315,38.5c0.1-0.2,0.2-0.4,0.4-0.7c-0.2-0.1-0.5-0.2-0.8-0.2
	c-3.9-1.1-3.9-1.1-3.9-5c0-3.9,0-7.8,0-11.7c0-3.6,0.1-7.2,0.2-10.8c0.1-1.6,0.8-2.5,2.5-2.6c0.6-0.1,1.1-0.3,1.7-0.5
	c0-0.2-0.1-0.4-0.1-0.6h-12.6l-0.1,0.5c0.5,0.2,1.1,0.5,1.7,0.5c1.8,0.1,2.5,1.1,2.5,2.8v24.3c0,1.7-0.9,2.6-2.5,2.9
	c-0.5,0.1-1.1,0.4-1.6,0.5l0.1,0.5H315z M104.1,72c0.1-1.2,0.1-1.9,0.1-2.5c0-3.6,0-7.3,0-10.9c0-1.6,0.1-3.1,1.9-3.8h-5
	c0.6,0.6,1.7,1.1,1.7,1.7c0.2,3.5,0.1,7,0.1,11c-3.3-3.7-6.5-7-9.2-10.6c-1.6-2.1-3.2-2.6-4.9-2.2c0.5,1,1.6,2.1,1.7,3.3
	c0.2,3.1,0.1,6.1,0.1,9.2c-0.1,1.6,0.2,3.4-1.9,4.1h5.2c-0.7-0.6-2-1.1-2-1.7c-0.2-3.8-0.1-7.6-0.1-11.7C96,62.6,99.9,67.1,104.1,72
	L104.1,72z M185.5,67.7c-0.3,0.3-0.5,0.5-0.6,0.7c-1.6,2.2-4.1,3-6.9,2.1c-2.4-0.8-1.3-3-1.5-4.6c-0.1-0.4,0-0.8,0-1.2
	c-0.1-1.2,0.5-1.5,1.6-1.5c1.7,0,3.5-0.2,4.2,2V60c-1.3,2.5-2,2.8-5.6,2v-6.6c2.8,0.2,5.8-1.2,7.5,2.3c-0.1-1-0.3-2-0.4-3h-10.3
	c0.4,1,1,2,1,3c0.1,3.2,0,6.4,0.1,9.6c0,1.7,0.2,3.5-2.3,3.8c3.4,0.2,6.7,0.2,10,0.2C185.1,71.5,185.3,71.2,185.5,67.7L185.5,67.7z
	 M57,54.8c1.9,0.4,1.6,1.8,1.7,3.1c0,2.6,0,5.2,0.1,7.8c0.2,3.9,2,5.9,5.8,6.1c4.1,0.3,6.7-1.4,7.2-5.2c0.4-2.8,0.2-5.6,0.4-8.4
	c0.1-1.4-0.1-2.9,1.9-3.4h-4.7c0.5,0.6,1.4,1.2,1.4,1.9c0.1,3.4,0.3,6.9-0.1,10.2c-0.4,2.8-2.5,4.1-5.2,3.9
	c-2.5-0.2-4.1-1.6-4.4-4.4c-0.3-2.6-0.2-5.3-0.3-7.9c-0.1-1.5,0-2.9,1.7-3.5C60.7,54.8,58.9,54.8,57,54.8z M304.2,54.8
	c0.8,0.7,1.7,1,2,1.7c1.4,2.6,2.9,5.2,4,8c1.2,3,0.4,5.7-1.9,6.9h6.4c-0.7-0.6-1.9-1.1-2-1.7c-0.1-2.1-0.3-4.5,0.5-6.4
	c1.4-3.1,2.6-6.5,6.1-8.5h-4.9c0.6,0.4,1,0.7,1.6,1.1c-1.3,2.5-2.6,4.8-4.1,7.6c-1.1-2.3-2.2-4.1-3-6.1c-0.3-0.7-0.1-1.6-0.2-2.6
	L304.2,54.8z M141.9,54.7c0.7,1.1,1.6,2,2.1,3.2c1.9,4.6,3.7,9.1,5.8,14.1c0.4-1,0.7-1.5,1-2.1c1.8-4,3.5-8.2,5.4-12.1
	c0.5-1.1,1.5-2,2.2-2.9h-3.8c0.2,0.6,0.9,1.3,0.7,1.7c-1.4,3.7-3,7.4-4.8,11.7c-1.6-4-3.1-7.5-4.4-11c-0.2-0.7,0.1-1.7,0.2-2.6
	H141.9z M279.3,71.4h6.2c-0.6-0.7-1.7-1.3-1.8-2c-0.2-4.6-0.1-9.1-0.1-13.6c4.1-0.7,5-0.4,6.6,2.3c0.1-1.4,0.2-2.6,0.3-3.6
	c-5.1,0.5-10.1,0.5-15.2-0.1c-0.2,1-0.5,2.1-0.9,3.7c2.6-2.7,3.7-3.1,7.1-2.2v12C281.6,69.5,281.4,71,279.3,71.4L279.3,71.4z
	 M237.5,58c0.2-0.1,0.4-0.2,0.6-0.2c-0.4-1-0.4-2.3-1.1-2.8c-1.6-1.3-5.8-0.5-7.2,1.2c-1.6,2-1,4.6,1.3,6.4c1.1,0.8,2.3,1.5,3.4,2.3
	c1.3,1,2.2,2.3,1.6,3.8c-0.4,1-1.6,2.2-2.5,2.2c-1.3,0-2.7-0.8-3.9-1.6c-0.6-0.4-0.8-1.3-1.3-2.1c-0.4,3.5,0.7,4.6,4.3,4.6
	c4,0,6.4-2.8,5.1-6.1c-0.5-1.3-1.9-2.4-3-3.4c-1-0.9-2.4-1.4-3.2-2.5c-0.6-0.8-0.8-2.3-0.4-3.1c0.3-0.7,1.6-1.3,2.6-1.4
	C235.8,54.8,236.7,56.4,237.5,58L237.5,58z M122,54.7c0.4,1.1,1.1,2.1,1.1,3.1c0.1,3.2,0.1,6.4,0.1,9.6c0,1.6,0.2,3.3-1.9,3.8h6
	c-1.8-0.3-2-1.5-2-2.9c0-3.4-0.1-6.9,0.1-10.2c0.1-1.1,0.8-2.3,1.1-3.4H122z M259.4,71.4c-2-0.5-2-2-1.9-3.5
	c0.1-3.2-0.1-6.4,0.1-9.6c0.1-1.2,0.7-2.3,1.1-3.4h-5.2c1.9,1,2,1.2,2,3.4c0.1,2.9,0,5.8,0,8.6c0,1.8,0.3,3.8-2,4.6H259.4z"/>
<path d="M194.7,38.1c0.5-0.3,1-0.7,1.5-0.8c2.7-0.7,3.2-1.1,3.2-3.8c0.1-3.9,0-7.8,0.1-11.7c0-1.3-0.6-1.9-1.9-1.9
	c-6.3,0-12.6,0-18.9,0c-1.3,0-1.8,0.6-1.8,1.9c0.1,3.9,0,7.8,0.1,11.7c0.1,2.8,0.7,3.4,3.5,3.8c0.7,0.1,1.3,0.5,2,0.7l-0.2,0.6
	h-14.5l-0.2-0.4c0.4-0.3,0.8-0.9,1.3-1c2.5-0.2,3.2-1.8,3.2-3.9c0.1-5.1,0.1-10.3,0.1-15.4c0-3.8,0.1-7.6-0.1-11.5
	c-0.2-3.8-0.7-4.9-4.3-5c-0.2,0-0.5-0.2-1.1-0.4c0.5-0.4,0.8-0.7,1.1-0.8C168.2,0,168.7,0,169,0h12.4c0.1,0.2,0.1,0.5,0.2,0.7
	c-0.5,0.2-1,0.6-1.6,0.8c-2.5,0.6-3.1,1.1-3.1,3.7c-0.1,3.5,0,7-0.1,10.5c0,1.2,0.4,1.7,1.7,1.7h19.1c1.2,0,1.7-0.5,1.7-1.7
	c-0.1-3.4,0-6.9-0.1-10.3c-0.1-2.9-0.4-3.2-3.3-4c-0.5-0.1-0.8-0.5-1.3-0.7c0.5-0.2,1-0.7,1.4-0.7c3.8-0.1,7.6-0.1,11.5,0
	c0.5,0,0.9,0.4,1.4,0.5c-0.4,0.3-0.7,0.8-1.1,0.8c-2.8,0.2-3.7,1.3-3.7,4.6c-0.1,8.9-0.1,17.8,0,26.7c0,3.4,0.4,3.7,3.8,4.6
	c0.4,0.1,0.8,0.5,1.2,0.8c-0.3,0.2-0.6,0.5-0.9,0.5c-4.5,0.1-9,0-13.5,0C194.9,38.5,194.8,38.2,194.7,38.1L194.7,38.1z M94.1,38.4
	H81.3c-0.1-0.2-0.1-0.4-0.1-0.5c0.6-0.2,1.3-0.5,1.9-0.6c1.6-0.3,2.2-1.3,2.2-2.8c0-3.4,0-6.9,0-10.3c0-1.2-0.6-1.6-1.6-1.6
	c-5.2,0-10.4,0-15.6,0c-1.3,0-1.9,0.5-1.8,1.9c0.1,3.1,0,6.1,0.1,9.3c0.1,2.7,0.6,3.2,3.3,3.7c0.4,0.1,0.8,0.3,1.2,0.4l-0.1,0.6
	H58.7l-0.2-0.3c0.4-0.2,0.8-0.6,1.2-0.7c1.7-0.4,2.6-1.4,2.6-3.2c0-7.9,0-15.7,0-23.6c0-1.9-0.7-3.4-2.9-3.4c-0.4,0-0.8-0.3-1.2-1
	h12.3c0.1,0.1,0.1,0.2,0.1,0.4c-0.4,0.2-0.8,0.5-1.3,0.5c-2.2,0.1-2.8,1.4-2.8,3.3c0,2.8,0,5.6-0.1,8.4c0,1.2,0.5,1.7,1.7,1.7h15.8
	c1.1,0,1.6-0.5,1.6-1.6c-0.1-2.6,0-5.3,0-8c0-2.9-0.3-3.2-3.1-3.8c-0.3-0.1-0.6-0.2-1.4-0.5c2.3-1.3,4.5-0.3,6.5-0.5
	c2-0.2,4-0.1,6.1-0.1c0,0.2,0.1,0.4,0.1,0.5c-0.4,0.2-0.7,0.5-1.1,0.5c-2.5,0.1-3,1.7-3,3.8v8v13.8c0,3.7,0.2,3.9,3.8,4.7
	C93.4,37.6,93.5,37.8,94.1,38.4L94.1,38.4z M40.8,5.5c10,0,16.8,6.8,16.9,16.7c0.1,9.8-7.5,17.4-17.2,17.3
	c-10-0.1-17.4-7.2-17.4-16.8C23.1,12.6,30.5,5.5,40.8,5.5z M40,6.9c-4.8-0.1-9,2.5-10.7,7.1c-2.4,6.5-1.8,12.8,1.9,18.6
	c2.6,4.2,6.8,5.9,11.7,5.2c4.9-0.7,7.9-3.9,9.2-8.5c1.4-5.1,1-10.2-1.2-15C48.8,9.6,45.2,7,40,6.9z"/>
<path d="M226.4,5.5c10.2,0,16.9,6.7,16.9,16.7c0,9.9-7.1,17.1-16.9,17.1c-10.1,0.1-17.7-7-17.6-16.7C208.9,12.7,216.3,5.5,226.4,5.5
	z M238.9,23.7c-0.4-5.2-1.7-9.5-4.1-12.6c-5.1-6.4-15.3-5.5-19.2,1.7c-3.3,6.2-2.1,16,2.5,21.2c5.7,6.4,15.8,4.7,19.1-3.1
	C238.1,28.7,238.3,26.2,238.9,23.7L238.9,23.7z M124.9,30.9V11c0-2.2-0.9-3.7-3.4-3.7c-0.4,0-0.9-0.4-1.2-1H132
	c-0.5,0.5-0.6,0.7-0.7,0.8c-3.8,0.2-3.9,2.9-4,5.7c-0.1,8.1-0.1,16.1-0.1,24.2c0,0.8-0.1,1.6-0.6,2.5l-23.8-27.2
	c-0.1,1.4-0.3,2.4-0.3,3.3c0.1,5.9,0.1,11.8,0.4,17.6c0.1,3.7,0.2,3.7,3.9,4.4c0.3,0.1,0.6,0.4,0.7,0.9H95.8
	c0.8-0.5,1.1-0.9,1.5-0.9c2.3-0.1,3.1-1.5,3.1-3.5c0.1-2.7,0.1-5.5,0.2-8.2c0-4.4,0-8.8,0-13.1c0-3.8-0.5-4.4-4.1-5.4
	C96.1,7.2,95.8,7,95,6.6c0.8-0.2,1.2-0.5,1.6-0.5c2.2,0,4.7-0.6,6.4,0.2s2.6,3.3,4.1,4.9c5.3,6.1,10.8,12.2,16.2,18.3
	C123.8,30,124.3,30.4,124.9,30.9z M300.2,38.5H289c-0.1-0.2-0.2-0.3-0.2-0.5c0.8-0.4,1.5-0.7,2.5-1.2c-0.4-0.5-0.6-1-1-1.4
	c-3.4-3.8-6.7-7.6-10.1-11.4c-0.4-0.4-0.8-0.8-1.3-1.1c-1.2-0.7-2-0.4-2,1c0,3.5,0,7.1,0.1,10.6c0,1.7,1,2.6,2.7,2.8
	c0.5,0.1,1.1,0.2,1.6,0.4c0,0.2-0.1,0.4-0.1,0.6h-11.9c-0.1-0.1-0.1-0.2-0.2-0.4c0.4-0.2,0.8-0.5,1.3-0.6c1.7-0.3,2.5-1.3,2.5-3
	c0-8,0-16,0-24c0-1.8-0.7-3.1-2.8-3.1c-0.5,0-1-0.3-1.4-0.5c0-0.2,0.1-0.4,0.1-0.5h12.5c-0.4,0.5-0.5,0.7-0.7,0.7
	c-3.6,1.2-3.7,1.2-3.7,5.1v6.6c0,0.7,0.2,1.4,0.2,2.2c2.2-0.3,12.1-9.8,13.8-13c-0.8-0.4-1.6-0.7-2.3-1.1c0.1-0.2,0.1-0.4,0.1-0.5
	h11c-0.4,0.5-0.5,0.7-0.7,0.8c-4.3,0.7-7.2,3.4-10.2,6.2c-2,1.8-3.8,3.7-5.8,5.5c-1,0.9-1,1.6-0.1,2.6c4.3,4.7,8.4,9.6,12.7,14.2
	c0.8,0.9,2.2,1.3,3.3,1.9c0.4,0.2,0.8,0.3,1.3,0.5C300.3,38.1,300.3,38.4,300.2,38.5L300.2,38.5z M324.8,12.8
	c-0.1,7.6-0.6,15.2,0.6,22.8c0.1,0.7,1.6,1.3,2.5,1.9c0.5,0.3,1.3,0.3,1.9,0.4c0,0.2-0.1,0.4-0.1,0.6h-11.2
	c-0.1-0.1-0.1-0.2-0.2-0.3c0.5-0.2,0.9-0.6,1.4-0.6c1.7-0.2,2.6-1.1,2.6-2.8c0.1-7.6,0.3-15.3,0.2-23c0-3.1-0.8-3.7-3.8-4.4
	c-0.5-0.1-0.9-0.4-1.3-0.6c0-0.2,0.1-0.4,0.1-0.6c1.2,0,2.5,0.1,3.7,0c2.9-0.4,4.7,0.7,6.6,3.1c5.8,7.3,12.3,14.2,18.5,21.2
	c0.1,0.1,0.3,0.2,0.5,0.3c0.1-0.1,0.3-0.2,0.3-0.2c0-6.4-0.1-12.9-0.1-19.2c0-2.3-1-4-3.7-3.9c-0.4,0-0.8-0.4-1.1-1h11.3l0.1,0.5
	c-0.4,0.2-0.8,0.5-1.3,0.6c-2.2,0.2-2.9,1.5-2.9,3.5c-0.1,6.9-0.2,13.6-0.2,20.5c0,2.2,0.1,4.5,0.1,6.7c0,0.4-0.2,0.8-0.4,1.6
	c-8.1-9.2-15.8-18.2-23.6-27C325.1,12.7,325,12.8,324.8,12.8L324.8,12.8z M8.2,0.4c0.6-0.1,1.1-0.4,1.7-0.4h11.9
	c0.5,0,0.9,0.3,1.4,0.5c-0.4,0.4-0.8,0.8-1.3,1c-2.7,0.8-3.2,1.4-3.2,4.3c-0.1,9.4,0,18.8-0.1,28.1c-0.1,4-0.5,8.1-3.2,11.4
	c-2.5,3.2-5.7,5.1-9.9,4.8c-0.7-0.1-2-0.8-2-1.2c0-1.3,0.7-2.5,2.3-2.5c0.7,0.1,1.4,0.2,2.2,0.4c3.1,0.7,4.4,0,4.9-3.1
	c0.5-3.4,0.8-6.8,0.9-10.2C14,24.8,14,16,14,7.2c0-0.7-0.1-1.5-0.1-2.2c-0.2-2-1.2-3.3-3.4-3.4C9.8,1.5,9,1.3,8.4,1.2
	C8.3,0.9,8.3,0.7,8.2,0.4z M257,38.5h-12.7c-0.1-0.2-0.1-0.4-0.1-0.6c0.5-0.1,1-0.4,1.4-0.4c1.7-0.2,2.7-1.1,2.7-3c0-8,0-16,0-24
	c0-1.6-0.7-2.6-2.4-2.6c-0.6,0-1.1-0.3-2-0.5c0.5-0.5,0.8-0.9,1-0.9c5.1,0.1,10.3-0.2,15.3,0.4c4.7,0.6,7.2,4,7.3,8.3
	c0.1,4.4-2.2,7.5-7,8.8c-1.5,0.4-3.1,0.6-4.7,0.8c-0.1-0.2-0.1-0.5-0.2-0.7c0.5-0.2,0.9-0.5,1.3-0.6c4.4-1.4,6.3-4.1,6.1-8.7
	c-0.2-4.9-4.5-8.1-9.3-7.2c-1.4,0.2-1.4,1.2-1.4,2.3v18.4c0,1.9,0,3.7,0.1,5.5c0.2,2.8,0.6,3.2,3.4,3.7c0.5,0.1,1,0.2,1.4,0.4
	C257.2,38.1,257.1,38.2,257,38.5L257,38.5z M149.3,12.6c-0.3-0.5-0.6-1-0.8-1.6c-1.6-3.5-5.2-5-8.8-3.7c-2.9,1.1-4.3,4.7-2.6,7.5
	c0.8,1.4,2.2,2.6,3.5,3.6c2,1.5,4.1,2.6,6.1,4.1c3.4,2.6,4.6,6.3,3.6,10.4c-1,4.1-4.2,5.9-8.1,6.4c-1.4,0.2-2.9,0.2-4.3,0
	c-5.8-0.8-7-2.6-6-8.8c0.4,0.5,0.8,1.1,1,1.7c1.4,3.3,3.7,5.6,7.5,5.8c2.5,0.1,4.7-0.5,5.9-2.8c1.3-2.4,1.1-5-0.5-7.2
	c-1-1.3-2.5-2.3-3.8-3.3c-2-1.5-4.1-2.7-5.9-4.4c-2.8-2.5-3.7-5.7-2.5-9.3c1.3-3.4,4.1-5,7.6-5.4c1.3-0.2,2.8-0.1,4.1,0
	C149.6,6,150.8,7.7,149.3,12.6z M371.4,12.6c-0.3-0.5-0.6-1.1-0.8-1.6c-1.6-3.5-5.2-5-8.9-3.7c-3.2,1.3-4.4,5.5-2,8.4
	c1,1.3,2.5,2.3,3.9,3.3c1.8,1.3,3.8,2.4,5.6,3.8c3.2,2.6,4.3,6.2,3.2,10.2c-1,3.9-4,5.8-7.8,6.3c-1.7,0.2-3.4,0.2-5.1-0.1
	c-5-0.7-6.9-3.4-5.8-9.1c0.6,1,1,1.6,1.3,2.2c1.4,3.2,3.7,5.5,7.4,5.7c2.5,0.1,4.7-0.5,6-2.8c1.3-2.5,1.1-4.9-0.5-7.2
	c-0.8-1.1-1.9-1.9-3-2.8c-2-1.5-4.3-2.8-6.2-4.3c-3.2-2.7-4.3-6.4-3.1-9.9c1.1-3.2,4.6-5.4,8.6-5.5c1.1,0,2.2-0.1,3.3,0.1
	C371.7,6.1,372.9,7.9,371.4,12.6z M315,38.5h-12.4l-0.1-0.5c0.5-0.2,1.1-0.4,1.6-0.5c1.7-0.3,2.5-1.2,2.5-2.9c0-8.1,0-16.2,0-24.3
	c0-1.7-0.8-2.7-2.5-2.8c-0.6-0.1-1.1-0.4-1.7-0.5l0.1-0.5h12.6c0,0.2,0.1,0.4,0.1,0.6c-0.6,0.2-1.1,0.4-1.7,0.5
	c-1.7,0.1-2.5,1-2.5,2.6c-0.1,3.6-0.1,7.2-0.2,10.8v11.7c0,4,0,4,3.9,5c0.2,0.1,0.5,0.2,0.8,0.2C315.2,38.1,315.1,38.2,315,38.5z
	 M205.9,71.4h-5.8c2.2-0.6,1.9-2.3,1.9-3.9c0-3.2,0-6.4,0-9.6c0-1.9-0.1-1.9-2.3-2.9c3.8-0.2,7-0.8,10.1,0.4c2.6,1,3.2,4.4,1.3,6.5
	c-0.5,0.6-1.3,1-2.3,1.9c2.1,2.7,4.3,5.4,6.3,7.9c-1.6,0.4-2.8,0.1-4.3-1.7c-1.1-1.4-2-3.1-3.2-4.5c-0.6-0.7-0.9-1-3.4-1.4v2.3
	c0,0.7-0.1,1.4,0,2c0.1,1.3,0,2.8,2.2,2.6C206.1,71.1,206,71.2,205.9,71.4L205.9,71.4z M205.6,63.1c2.8,0,4-1.1,4.1-3.5
	c0.1-2.4-1.4-4-3.8-4.1c-1.5-0.1-2.1,0.4-2,2c0.1,1.3,0.1,2.6,0,3.9C203.9,62.6,204.3,63.1,205.6,63.1z M104.1,72
	c-4.3-4.9-8.2-9.3-12.3-14c0,4.1-0.1,7.9,0.1,11.7c0,0.5,1.2,1.1,2,1.7h-5.2c2-0.7,1.9-2.5,1.9-4.1c0.1-3.1,0.2-6.2-0.1-9.2
	c-0.1-1.1-1.1-2.2-1.7-3.3c1.7-0.4,3.4,0.1,4.9,2.2c2.7,3.7,5.9,6.9,9.2,10.6c0-4,0.1-7.5-0.1-11c0-0.6-1.1-1.1-1.7-1.7h5
	c-1.9,0.7-1.9,2.2-1.9,3.8v10.9C104.2,70.2,104.2,70.8,104.1,72z M185.5,67.7c-0.1,3.4-0.4,3.8-3.4,3.8c-3.3,0-6.6,0-10-0.2
	c2.5-0.3,2.4-2,2.3-3.8c-0.1-3.2,0.1-6.4-0.1-9.6c-0.1-1-0.7-2-1-3h10.3c0.1,1,0.3,2,0.4,3c-1.7-3.5-4.7-2.1-7.5-2.3V62
	c3.6,0.7,4.3,0.5,5.6-2v5.2c-0.7-2.2-2.5-2-4.2-2c-1.1,0-1.7,0.4-1.6,1.5c0.1,0.4-0.1,0.8,0,1.2c0.2,1.6-0.9,3.7,1.5,4.6
	c2.6,1,5.2,0.1,6.9-2.1C185,68.2,185.2,68.1,185.5,67.7L185.5,67.7z M57,54.8h5.5c-1.7,0.6-1.8,2-1.7,3.5c0.1,2.6,0,5.3,0.3,7.9
	c0.3,2.8,1.9,4.3,4.4,4.4c2.6,0.2,4.7-1.1,5.2-3.9c0.4-3.4,0.2-6.8,0.1-10.2c0-0.7-1-1.3-1.4-1.9H74c-1.9,0.4-1.8,2-1.9,3.4
	c-0.1,2.8,0.1,5.7-0.4,8.4c-0.5,3.8-3.2,5.5-7.2,5.2c-3.7-0.3-5.5-2.2-5.8-6.1c-0.1-2.6-0.1-5.2-0.1-7.8
	C58.7,56.6,58.9,55.1,57,54.8z M304.2,54.8h4.7c0.1,1-0.1,1.9,0.2,2.6c0.8,1.9,1.9,3.8,3,6.1c1.5-2.8,2.8-5.1,4.1-7.6
	c-0.5-0.4-1-0.7-1.6-1.1h4.9c-3.4,2-4.6,5.4-6.1,8.5c-0.8,1.8-0.6,4.2-0.5,6.4c0,0.5,1.2,1.1,2,1.7h-6.4c2.3-1.1,3.2-3.8,1.9-6.9
	c-1.1-2.8-2.6-5.4-4-8C305.8,55.8,305.1,55.4,304.2,54.8L304.2,54.8z M141.9,54.7h4.4c-0.1,0.9-0.5,1.9-0.2,2.6
	c1.3,3.5,2.7,6.9,4.4,11c1.8-4.3,3.4-8,4.8-11.7c0.2-0.4-0.5-1.1-0.7-1.7h3.8c-0.7,0.9-1.6,1.8-2.2,2.9c-1.9,4-3.6,8.1-5.4,12.1
	c-0.2,0.6-0.5,1.1-1,2.1c-2-5-3.8-9.6-5.8-14.1C143.6,56.8,142.6,55.8,141.9,54.7L141.9,54.7z M279.3,71.4c2.1-0.4,2.3-1.8,2.3-3.5
	c0-4,0-8.1,0-12c-3.4-0.8-4.5-0.5-7.1,2.2c0.4-1.6,0.7-2.7,0.9-3.7c5.1,0.5,10.1,0.5,15.2,0.1c-0.1,1-0.2,2.2-0.3,3.6
	c-1.6-2.7-2.6-3-6.6-2.3c0,4.5-0.1,9.1,0.1,13.6c0,0.7,1.1,1.3,1.8,2C283.5,71.4,281.4,71.4,279.3,71.4z M237.5,58
	c-0.8-1.6-1.7-3.2-3.7-2.8c-1,0.2-2.3,0.7-2.6,1.4c-0.4,0.8-0.1,2.3,0.4,3.1c0.8,1,2.2,1.6,3.2,2.5c1.1,1,2.5,2.1,3,3.4
	c1.3,3.4-1.1,6.1-5.1,6.1c-3.6,0-4.7-1.1-4.3-4.6c0.5,0.8,0.7,1.8,1.3,2.1c1.2,0.7,2.6,1.6,3.9,1.6c0.8,0,2.1-1.3,2.5-2.2
	c0.6-1.6-0.3-2.9-1.6-3.8c-1.1-0.8-2.3-1.5-3.4-2.3c-2.3-1.9-2.8-4.4-1.3-6.4c1.3-1.7,5.5-2.6,7.2-1.2c0.7,0.6,0.7,1.9,1.1,2.8
	C237.9,57.8,237.7,57.8,237.5,58L237.5,58z M122,54.7h4.5c-0.4,1.1-1.1,2.2-1.1,3.4c-0.2,3.4,0,6.8-0.1,10.2c0,1.4,0.2,2.6,2,2.9h-6
	c2.2-0.5,1.9-2.2,1.9-3.8c0-3.2,0.1-6.4-0.1-9.6C123.1,56.8,122.4,55.8,122,54.7z M259.4,71.4h-6c2.3-0.7,2-2.7,2-4.6
	c0-2.9,0.1-5.8,0-8.6c-0.1-2.2-0.2-2.4-2-3.4h5.2c-0.4,1-1.1,2.2-1.1,3.4c-0.2,3.2,0,6.4-0.1,9.6C257.5,69.3,257.5,70.8,259.4,71.4
	L259.4,71.4z"/>
</svg>
